<svg width="190" height="35" viewBox="0 0 340 69" fill="none" xmlns="http://www.w3.org/2000/svg">
<path d="M21.2259 39.963C21.3446 39.9876 21.4653 39.9877 21.5839 40H28.3072C28.4268 39.9877 28.5465 39.9876 28.6652 39.963C28.9033 39.914 29.1357 39.815 29.3559 39.6688C29.8527 39.3372 30.2701 38.7808 30.5511 38.0756C30.8321 37.3704 30.9629 36.5507 30.9259 35.7283C30.8888 34.9059 30.6857 34.1209 30.3441 33.4804C30.0025 32.8399 29.5391 32.3751 29.0171 32.1494C28.9025 32.1001 28.7828 32.0739 28.6652 32.037L28.3072 32H21.5839C21.1015 32.0017 20.6285 32.203 20.2158 32.5823C19.7528 33.0138 19.3889 33.6519 19.1737 34.4094C18.9586 35.167 18.9027 36.0069 19.0136 36.8146C19.1246 37.6222 19.3971 38.358 19.7938 38.9216C20.1905 39.4851 20.6921 39.8488 21.23 39.963H21.2259Z" fill="black"/>
<path d="M2.6459 7.963C2.78434 7.98765 2.92515 7.98768 3.06359 8H10.9073C11.047 7.98768 11.1866 7.98765 11.325 7.963C11.6028 7.91401 11.874 7.81501 12.1308 7.66879C12.7105 7.3372 13.1974 6.78081 13.5252 6.0756C13.8531 5.37039 14.0058 4.55069 13.9625 3.72831C13.9193 2.90592 13.6823 2.12091 13.2837 1.48041C12.8852 0.839907 12.3446 0.375108 11.7356 0.149409C11.6019 0.100112 11.4623 0.0739255 11.325 0.0369526L10.9073 0H3.06359C2.50077 0.00171357 1.94894 0.203015 1.46738 0.582309C0.927288 1.01382 0.5027 1.65192 0.251671 2.40944C0.00064238 3.16696 -0.0645635 4.00694 0.0649105 4.81456C0.194385 5.62217 0.512245 6.35802 0.975061 6.92156C1.43788 7.48509 2.02305 7.84881 2.65063 7.963H2.6459Z" fill="black"/>
<path d="M20.5263 61.2246C20.373 61.1758 20.2129 61.1514 20.0555 61.1148L19.5766 61.0781H14.714C14.0684 61.0779 13.4352 61.2774 12.8837 61.6547C12.2645 62.082 11.7776 62.714 11.4898 63.4641C11.2019 64.2142 11.1271 65.046 11.2756 65.8457C11.424 66.6455 11.7886 67.3741 12.3192 67.9322C12.8499 68.4902 13.5209 68.8504 14.2405 68.9634C14.3992 68.9879 14.5593 68.9878 14.7194 69H19.582C19.7421 68.9878 19.9022 68.9879 20.0609 68.9634C20.3794 68.9149 20.6904 68.8168 20.9849 68.6721C21.65 68.344 22.2088 67.7931 22.5851 67.0946C22.9613 66.396 23.1366 65.5839 23.0871 64.7692C23.0375 63.9545 22.7655 63.1768 22.3081 62.5424C21.8508 61.908 21.2304 61.4478 20.5317 61.2246H20.5263Z" fill="black"/>
<path d="M105.992 18.7225C105.992 18.6904 105.992 18.6584 105.992 18.6263C105.992 18.5287 105.983 18.4311 105.971 18.3335C105.887 17.7197 105.643 17.148 105.268 16.692C105.133 16.5206 104.977 16.3721 104.804 16.2511C104.763 16.2191 104.721 16.1871 104.679 16.1581L104.628 16.1184L80.434 0.40577C80.3105 0.338648 80.1911 0.253237 80.0636 0.204421C79.8077 0.0922879 79.5383 0.0233972 79.2645 2.28442e-07C79.1423 2.28442e-07 79.0189 7.67782e-06 78.8954 0.00763518L78.8018 2.28442e-07H19.5717C18.9261 -0.000246416 18.2929 0.199234 17.7415 0.576625C17.1222 1.00392 16.6353 1.63584 16.3475 2.38597C16.0596 3.1361 15.9848 3.96783 16.1333 4.76756C16.2818 5.56729 16.6462 6.29601 17.1769 6.85404C17.7076 7.41208 18.3786 7.77224 19.0982 7.88532C19.2569 7.90973 19.417 7.90971 19.5771 7.92191H35.9395L36.5269 7.98448C37.3486 8.15323 38.0905 8.64435 38.6203 9.37046C39.1501 10.0966 39.4336 11.0105 39.4202 11.9496C39.4069 12.8887 39.0976 13.792 38.5474 14.4987C37.9972 15.2054 37.2418 15.6696 36.4157 15.8088C36.2569 15.8332 36.0955 15.8332 35.9354 15.8454L15.4659 16.1657C15.1446 16.1674 14.8251 16.2188 14.5162 16.3183C14.2067 16.4162 13.9105 16.5609 13.6357 16.7485C13.0164 17.1758 12.5296 17.8076 12.2417 18.5578C11.9539 19.3079 11.8791 20.1397 12.0275 20.9394C12.176 21.7391 12.5405 22.4678 13.0711 23.0258C13.6018 23.5839 14.2728 23.944 14.9924 24.0571C15.1511 24.0815 15.3112 24.0815 15.4713 24.0937C15.6314 24.1059 44.1804 23.7734 44.1804 23.7734L44.7678 23.8344C44.8886 23.8603 45.0093 23.8832 45.126 23.9198C45.8247 24.143 46.4451 24.6032 46.9024 25.2376C47.3598 25.872 47.6318 26.6497 47.6814 27.4644C47.7309 28.2792 47.5556 29.0913 47.1794 29.7898C46.8031 30.4883 46.2443 31.0393 45.5792 31.3673C45.2847 31.5121 44.9737 31.6102 44.6552 31.6587C44.4965 31.6831 44.3364 31.6831 44.1763 31.6953H36.9489C36.6276 31.6971 36.308 31.7484 35.9991 31.8478C35.6894 31.9443 35.3931 32.0885 35.1186 32.2765C34.4993 32.7038 34.0125 33.3357 33.7247 34.0859C33.4368 34.836 33.3621 35.6678 33.5105 36.4675C33.659 37.2672 34.0234 37.9959 34.5541 38.5539C35.0848 39.112 35.7558 39.4721 36.4754 39.5852C36.6341 39.6096 36.7942 39.6096 36.9543 39.6218H54.7874C55.1599 39.622 55.5288 39.5397 55.873 39.3795C56.2172 39.2194 56.5299 38.9846 56.7933 38.6885C57.0568 38.3924 57.2658 38.0409 57.4083 37.654C57.5509 37.2671 57.6243 36.8523 57.6243 36.4335V25.186C57.6245 25.0809 57.6492 24.9777 57.696 24.8868C57.7428 24.7958 57.81 24.7203 57.8909 24.6677C57.9719 24.6152 58.0637 24.5875 58.1571 24.5875C58.2506 24.5874 58.3424 24.6149 58.4235 24.6674L70.9055 32.7708C72.5523 33.84 73.9197 35.3777 74.8705 37.2294C75.8212 39.081 76.3217 41.1815 76.3217 43.3196V50.4056C76.3217 51.4347 76.0808 52.4458 75.6231 53.3371C75.1655 54.2284 74.5072 54.9685 73.7144 55.483C72.9217 55.9976 72.0225 56.2684 71.1071 56.2683C70.1918 56.2682 69.2926 55.9971 68.5 55.4824L58.2525 48.816C58.0785 48.7051 57.9273 48.5542 57.8088 48.373C57.6902 48.1919 57.607 47.9847 57.5646 47.7649C57.432 47.0474 57.083 46.4034 56.5767 45.942C56.0704 45.4805 55.4378 45.2299 54.7861 45.2326H18.4595C17.5761 45.2494 16.7304 45.6383 16.0898 46.3225C15.4491 47.0066 15.0601 47.9362 14.9998 48.9273C14.9394 49.9184 15.212 50.899 15.7637 51.675C16.3154 52.4509 17.1061 52.9659 17.9792 53.1179C18.138 53.1423 18.2994 53.1423 18.4595 53.1545H40.2662L40.8523 53.2171C41.674 53.3858 42.4158 53.8769 42.9456 54.6031C43.4754 55.3292 43.7589 56.2431 43.7456 57.1822C43.7322 58.1213 43.4229 59.0246 42.8727 59.7313C42.3225 60.438 41.5671 60.9022 40.741 61.0414C40.5823 61.0658 40.4208 61.0657 40.2607 61.078H31.3876C30.742 61.0777 30.1088 61.2772 29.5574 61.6546C28.9381 62.0819 28.4512 62.7138 28.1634 63.4639C27.8755 64.2141 27.8008 65.0458 27.9492 65.8456C28.0977 66.6453 28.4622 67.374 28.9928 67.932C29.5235 68.49 30.1945 68.8502 30.9141 68.9633C31.0728 68.9877 31.2329 68.9877 31.393 68.9999H78.8859H78.9415H79.0677C79.1342 68.9999 79.2034 68.9999 79.2645 68.9999C79.3255 68.9999 79.4096 68.9846 79.4815 68.9709C79.6806 68.9364 79.8758 68.8775 80.0636 68.7954C80.1314 68.7649 80.1992 68.7283 80.263 68.6917L80.2888 68.6795C80.4978 68.5771 80.6969 68.4508 80.883 68.3027L104.626 52.8952C104.739 52.8082 104.858 52.7304 104.965 52.6343C105.289 52.3456 105.549 51.9784 105.729 51.5602C105.908 51.1419 106 50.6836 105.999 50.2195V18.7942L105.992 18.7225ZM79.989 7.26288L97.0406 18.3304C97.1127 18.3775 97.1725 18.445 97.2141 18.5263C97.2557 18.6075 97.2776 18.6996 97.2776 18.7934C97.2776 18.8871 97.2557 18.9793 97.2141 19.0605C97.1725 19.1418 97.1127 19.2093 97.0406 19.2564L93.6949 21.4287C93.4134 21.6116 93.094 21.7079 92.7689 21.7079C92.4438 21.7079 92.1244 21.6116 91.8429 21.4287L74.874 10.413C74.7923 10.3605 74.7243 10.2845 74.6771 10.1929C74.6298 10.1013 74.6049 9.99727 74.6049 9.89135C74.6049 9.78544 74.6298 9.68139 74.6771 9.58977C74.7243 9.49816 74.7923 9.42221 74.874 9.36962L78.1194 7.26288C78.4034 7.07778 78.7259 6.98034 79.0542 6.98034C79.3825 6.98034 79.7049 7.07778 79.989 7.26288ZM78.1289 30.3315L61.1586 19.3159C61.0789 19.2615 61.013 19.1849 60.9672 19.0935C60.9215 19.0021 60.8974 18.899 60.8974 18.7942C60.8974 18.6893 60.9215 18.5862 60.9672 18.4948C61.013 18.4034 61.0789 18.3268 61.1586 18.2724L64.4053 16.1657C64.6896 15.9813 65.012 15.8843 65.3401 15.8843C65.6683 15.8843 65.9907 15.9813 66.2749 16.1657L83.3279 27.2332C83.4003 27.2802 83.4605 27.3478 83.5023 27.4292C83.5441 27.5106 83.5661 27.603 83.5661 27.697C83.5661 27.791 83.5441 27.8833 83.5023 27.9647C83.4605 28.0461 83.4003 28.1137 83.3279 28.1607L79.9822 30.3315C79.7006 30.515 79.381 30.6116 79.0555 30.6116C78.7301 30.6116 78.4104 30.515 78.1289 30.3315ZM100.5 47.6002C100.5 47.8499 100.442 48.0953 100.331 48.3117C100.22 48.528 100.06 48.7077 99.868 48.8328L83.6997 59.3282C83.5072 59.4533 83.2889 59.5193 83.0666 59.5194C82.8443 59.5194 82.6259 59.4537 82.4333 59.3288C82.2408 59.2038 82.0809 59.0241 81.9698 58.8076C81.8586 58.5911 81.8002 58.3456 81.8002 58.0956V37.1047C81.8005 36.8548 81.8591 36.6094 81.9703 36.3931C82.0815 36.1767 82.2413 35.997 82.4338 35.8721L86.7876 33.0454C86.7876 36.6867 86.7876 41.8734 86.7971 44.4729C86.7973 44.6376 86.836 44.7994 86.9092 44.9421C86.9824 45.0848 87.0877 45.2034 87.2144 45.286C87.3412 45.3687 87.4851 45.4124 87.6316 45.4129C87.7781 45.4135 87.9222 45.3707 88.0494 45.289L94.8332 40.9429C95.039 40.8108 95.2102 40.62 95.3293 40.3896C95.4485 40.1592 95.5113 39.8975 95.5115 39.631V27.3812L98.5968 25.3767C98.7892 25.2516 99.0076 25.1856 99.2299 25.1856C99.4522 25.1855 99.6706 25.2512 99.8631 25.3761C100.056 25.5011 100.216 25.6808 100.327 25.8973C100.438 26.1138 100.496 26.3593 100.496 26.6093L100.5 47.6002Z" fill="black"/>
<path d="M149.52 37.957C149.52 38.8685 149.292 39.8581 148.836 40.9258C148.393 41.9805 147.69 43.0221 146.727 44.0508C145.763 45.0664 144.533 45.8932 143.035 46.5312C141.538 47.1693 139.793 47.4883 137.801 47.4883C136.29 47.4883 134.917 47.3451 133.68 47.0586C132.443 46.7721 131.316 46.3294 130.301 45.7305C129.298 45.1185 128.374 44.3177 127.527 43.3281C126.772 42.4297 126.128 41.4271 125.594 40.3203C125.06 39.2005 124.656 38.0091 124.383 36.7461C124.122 35.4831 123.992 34.1419 123.992 32.7227C123.992 30.418 124.324 28.3542 124.988 26.5312C125.665 24.7083 126.629 23.1523 127.879 21.8633C129.129 20.5612 130.594 19.5716 132.273 18.8945C133.953 18.2174 135.743 17.8789 137.645 17.8789C139.962 17.8789 142.026 18.3411 143.836 19.2656C145.646 20.1901 147.033 21.3359 147.996 22.7031C148.96 24.0573 149.441 25.3398 149.441 26.5508C149.441 27.2148 149.207 27.8008 148.738 28.3086C148.27 28.8164 147.703 29.0703 147.039 29.0703C146.297 29.0703 145.737 28.8945 145.359 28.543C144.995 28.1914 144.585 27.5859 144.129 26.7266C143.374 25.3073 142.482 24.2461 141.453 23.543C140.438 22.8398 139.181 22.4883 137.684 22.4883C135.301 22.4883 133.4 23.3932 131.98 25.2031C130.574 27.013 129.871 29.5846 129.871 32.918C129.871 35.1445 130.184 37 130.809 38.4844C131.434 39.9557 132.319 41.056 133.465 41.7852C134.611 42.5143 135.952 42.8789 137.488 42.8789C139.155 42.8789 140.561 42.4688 141.707 41.6484C142.866 40.8151 143.738 39.5977 144.324 37.9961C144.572 37.2409 144.878 36.6289 145.242 36.1602C145.607 35.6784 146.193 35.4375 147 35.4375C147.69 35.4375 148.283 35.6784 148.777 36.1602C149.272 36.6419 149.52 37.2409 149.52 37.957ZM172.724 36.6484C172.724 38.237 172.477 39.7018 171.982 41.043C171.487 42.3841 170.771 43.5365 169.834 44.5C168.896 45.4635 167.776 46.2057 166.474 46.7266C165.172 47.2344 163.707 47.4883 162.08 47.4883C160.465 47.4883 159.013 47.2279 157.724 46.707C156.435 46.1862 155.315 45.444 154.365 44.4805C153.427 43.5039 152.711 42.3581 152.216 41.043C151.735 39.7148 151.494 38.25 151.494 36.6484C151.494 35.0339 151.741 33.556 152.236 32.2148C152.731 30.8737 153.44 29.7279 154.365 28.7773C155.289 27.8268 156.409 27.0977 157.724 26.5898C159.039 26.069 160.491 25.8086 162.08 25.8086C163.694 25.8086 165.159 26.069 166.474 26.5898C167.789 27.1107 168.916 27.8529 169.853 28.8164C170.791 29.7799 171.5 30.9258 171.982 32.2539C172.477 33.582 172.724 35.0469 172.724 36.6484ZM167.373 36.6484C167.373 34.474 166.891 32.7812 165.927 31.5703C164.977 30.3594 163.694 29.7539 162.08 29.7539C161.038 29.7539 160.12 30.0273 159.326 30.5742C158.532 31.1081 157.92 31.9023 157.49 32.957C157.06 34.0117 156.845 35.2422 156.845 36.6484C156.845 38.0417 157.054 39.2591 157.47 40.3008C157.9 41.3424 158.505 42.1432 159.287 42.7031C160.081 43.25 161.012 43.5234 162.08 43.5234C163.694 43.5234 164.977 42.918 165.927 41.707C166.891 40.4831 167.373 38.7969 167.373 36.6484ZM189.191 44.4805V43.7969C188.553 44.6042 187.882 45.2812 187.179 45.8281C186.476 46.375 185.708 46.7786 184.874 47.0391C184.041 47.3125 183.09 47.4492 182.023 47.4492C180.734 47.4492 179.575 47.1823 178.546 46.6484C177.53 46.1146 176.743 45.3789 176.183 44.4414C175.519 43.3086 175.187 41.681 175.187 39.5586V28.9922C175.187 27.9245 175.428 27.1302 175.909 26.6094C176.391 26.0755 177.029 25.8086 177.823 25.8086C178.631 25.8086 179.282 26.0755 179.777 26.6094C180.271 27.1432 180.519 27.9375 180.519 28.9922V37.5273C180.519 38.7643 180.623 39.806 180.831 40.6523C181.04 41.4857 181.411 42.1432 181.945 42.625C182.491 43.0938 183.227 43.3281 184.152 43.3281C185.05 43.3281 185.896 43.0612 186.691 42.5273C187.485 41.9935 188.064 41.2969 188.429 40.4375C188.728 39.6823 188.878 38.0286 188.878 35.4766V28.9922C188.878 27.9375 189.126 27.1432 189.62 26.6094C190.115 26.0755 190.76 25.8086 191.554 25.8086C192.348 25.8086 192.986 26.0755 193.468 26.6094C193.95 27.1302 194.191 27.9245 194.191 28.9922V44.4414C194.191 45.457 193.956 46.2188 193.487 46.7266C193.032 47.2344 192.439 47.4883 191.71 47.4883C190.981 47.4883 190.376 47.2279 189.894 46.707C189.425 46.1732 189.191 45.431 189.191 44.4805ZM203.216 39.793V44.2461C203.216 45.3268 202.962 46.1406 202.454 46.6875C201.946 47.2214 201.302 47.4883 200.52 47.4883C199.752 47.4883 199.121 47.2148 198.626 46.668C198.131 46.1211 197.884 45.3138 197.884 44.2461V29.4023C197.884 27.0065 198.749 25.8086 200.481 25.8086C201.367 25.8086 202.005 26.0885 202.395 26.6484C202.786 27.2083 203.001 28.0352 203.04 29.1289C203.678 28.0352 204.329 27.2083 204.993 26.6484C205.67 26.0885 206.568 25.8086 207.688 25.8086C208.808 25.8086 209.895 26.0885 210.95 26.6484C212.005 27.2083 212.532 27.9505 212.532 28.875C212.532 29.526 212.304 30.0664 211.848 30.4961C211.406 30.9128 210.924 31.1211 210.403 31.1211C210.208 31.1211 209.733 31.0039 208.977 30.7695C208.235 30.5221 207.578 30.3984 207.005 30.3984C206.223 30.3984 205.585 30.6068 205.091 31.0234C204.596 31.4271 204.212 32.0326 203.938 32.8398C203.665 33.6471 203.476 34.6107 203.372 35.7305C203.268 36.8372 203.216 38.1914 203.216 39.793ZM219.194 28.8359V44.2461C219.194 45.3138 218.94 46.1211 218.432 46.668C217.924 47.2148 217.28 47.4883 216.498 47.4883C215.717 47.4883 215.079 47.2083 214.584 46.6484C214.103 46.0885 213.862 45.2878 213.862 44.2461V28.9922C213.862 27.9375 214.103 27.1432 214.584 26.6094C215.079 26.0755 215.717 25.8086 216.498 25.8086C217.28 25.8086 217.924 26.0755 218.432 26.6094C218.94 27.1432 219.194 27.8854 219.194 28.8359ZM216.557 23.3281C215.815 23.3281 215.177 23.1003 214.643 22.6445C214.122 22.1888 213.862 21.5443 213.862 20.7109C213.862 19.9557 214.129 19.3372 214.662 18.8555C215.209 18.3607 215.841 18.1133 216.557 18.1133C217.247 18.1133 217.859 18.3346 218.393 18.7773C218.927 19.2201 219.194 19.8646 219.194 20.7109C219.194 21.5312 218.933 22.1758 218.412 22.6445C217.892 23.1003 217.273 23.3281 216.557 23.3281ZM238.004 37.957H227.574C227.587 39.168 227.828 40.2357 228.297 41.1602C228.779 42.0846 229.41 42.7812 230.191 43.25C230.986 43.7188 231.858 43.9531 232.809 43.9531C233.447 43.9531 234.026 43.8815 234.547 43.7383C235.081 43.582 235.595 43.3477 236.09 43.0352C236.585 42.7096 237.04 42.3646 237.457 42C237.874 41.6354 238.414 41.1406 239.078 40.5156C239.352 40.2812 239.742 40.1641 240.25 40.1641C240.797 40.1641 241.24 40.3138 241.578 40.6133C241.917 40.9128 242.086 41.3359 242.086 41.8828C242.086 42.3646 241.897 42.931 241.52 43.582C241.142 44.2201 240.569 44.8385 239.801 45.4375C239.046 46.0234 238.089 46.5117 236.93 46.9023C235.784 47.293 234.462 47.4883 232.965 47.4883C229.54 47.4883 226.878 46.5117 224.977 44.5586C223.076 42.6055 222.125 39.9557 222.125 36.6094C222.125 35.0339 222.359 33.5755 222.828 32.2344C223.297 30.8802 223.98 29.7214 224.879 28.7578C225.777 27.7943 226.884 27.0586 228.199 26.5508C229.514 26.0299 230.973 25.7695 232.574 25.7695C234.658 25.7695 236.441 26.2122 237.926 27.0977C239.423 27.9701 240.543 29.1029 241.285 30.4961C242.027 31.8893 242.398 33.3086 242.398 34.7539C242.398 36.0951 242.014 36.9674 241.246 37.3711C240.478 37.7617 239.397 37.957 238.004 37.957ZM227.574 34.9297H237.242C237.112 33.1068 236.617 31.7461 235.758 30.8477C234.911 29.9362 233.792 29.4805 232.398 29.4805C231.07 29.4805 229.977 29.9427 229.117 30.8672C228.271 31.7786 227.757 33.1328 227.574 34.9297ZM250.603 39.793V44.2461C250.603 45.3268 250.349 46.1406 249.841 46.6875C249.334 47.2214 248.689 47.4883 247.908 47.4883C247.14 47.4883 246.508 47.2148 246.013 46.668C245.518 46.1211 245.271 45.3138 245.271 44.2461V29.4023C245.271 27.0065 246.137 25.8086 247.869 25.8086C248.754 25.8086 249.392 26.0885 249.783 26.6484C250.173 27.2083 250.388 28.0352 250.427 29.1289C251.065 28.0352 251.716 27.2083 252.38 26.6484C253.058 26.0885 253.956 25.8086 255.076 25.8086C256.196 25.8086 257.283 26.0885 258.338 26.6484C259.392 27.2083 259.92 27.9505 259.92 28.875C259.92 29.526 259.692 30.0664 259.236 30.4961C258.793 30.9128 258.311 31.1211 257.791 31.1211C257.595 31.1211 257.12 31.0039 256.365 30.7695C255.623 30.5221 254.965 30.3984 254.392 30.3984C253.611 30.3984 252.973 30.6068 252.478 31.0234C251.983 31.4271 251.599 32.0326 251.326 32.8398C251.052 33.6471 250.864 34.6107 250.759 35.7305C250.655 36.8372 250.603 38.1914 250.603 39.793ZM267.304 21.3945V42.2344H279.062C279.999 42.2344 280.715 42.4622 281.21 42.918C281.718 43.3737 281.972 43.9466 281.972 44.6367C281.972 45.3398 281.724 45.9128 281.23 46.3555C280.735 46.7852 280.012 47 279.062 47H265.058C263.795 47 262.883 46.7201 262.323 46.1602C261.777 45.6003 261.503 44.6953 261.503 43.4453V21.3945C261.503 20.2227 261.764 19.3438 262.284 18.7578C262.818 18.1719 263.515 17.8789 264.374 17.8789C265.247 17.8789 265.95 18.1719 266.484 18.7578C267.03 19.3307 267.304 20.2096 267.304 21.3945ZM289.161 28.8359V44.2461C289.161 45.3138 288.907 46.1211 288.399 46.668C287.891 47.2148 287.247 47.4883 286.466 47.4883C285.684 47.4883 285.046 47.2083 284.552 46.6484C284.07 46.0885 283.829 45.2878 283.829 44.2461V28.9922C283.829 27.9375 284.07 27.1432 284.552 26.6094C285.046 26.0755 285.684 25.8086 286.466 25.8086C287.247 25.8086 287.891 26.0755 288.399 26.6094C288.907 27.1432 289.161 27.8854 289.161 28.8359ZM286.524 23.3281C285.782 23.3281 285.144 23.1003 284.61 22.6445C284.089 22.1888 283.829 21.5443 283.829 20.7109C283.829 19.9557 284.096 19.3372 284.63 18.8555C285.177 18.3607 285.808 18.1133 286.524 18.1133C287.214 18.1133 287.826 18.3346 288.36 18.7773C288.894 19.2201 289.161 19.8646 289.161 20.7109C289.161 21.5312 288.901 22.1758 288.38 22.6445C287.859 23.1003 287.24 23.3281 286.524 23.3281ZM297.932 28.7578V29.4023C298.87 28.1654 299.892 27.2604 300.998 26.6875C302.118 26.1016 303.401 25.8086 304.846 25.8086C306.252 25.8086 307.509 26.1146 308.616 26.7266C309.722 27.3385 310.549 28.2044 311.096 29.3242C311.448 29.9753 311.676 30.6784 311.78 31.4336C311.884 32.1888 311.936 33.1523 311.936 34.3242V44.2461C311.936 45.3138 311.689 46.1211 311.194 46.668C310.712 47.2148 310.08 47.4883 309.299 47.4883C308.505 47.4883 307.86 47.2083 307.366 46.6484C306.871 46.0885 306.623 45.2878 306.623 44.2461V35.3594C306.623 33.6016 306.376 32.2604 305.881 31.3359C305.399 30.3984 304.429 29.9297 302.971 29.9297C302.021 29.9297 301.155 30.2161 300.373 30.7891C299.592 31.349 299.019 32.1237 298.655 33.1133C298.394 33.9076 298.264 35.3919 298.264 37.5664V44.2461C298.264 45.3268 298.01 46.1406 297.502 46.6875C297.008 47.2214 296.363 47.4883 295.569 47.4883C294.801 47.4883 294.169 47.2083 293.674 46.6484C293.179 46.0885 292.932 45.2878 292.932 44.2461V28.8359C292.932 27.8203 293.153 27.0651 293.596 26.5703C294.039 26.0625 294.644 25.8086 295.413 25.8086C295.881 25.8086 296.304 25.9193 296.682 26.1406C297.06 26.362 297.359 26.694 297.58 27.1367C297.815 27.5794 297.932 28.1198 297.932 28.7578ZM328.949 45.0469L324.242 37.3125L321.352 40.0469V44.2852C321.352 45.3138 321.078 46.1081 320.531 46.668C319.997 47.2148 319.379 47.4883 318.676 47.4883C317.855 47.4883 317.211 47.2148 316.742 46.668C316.273 46.1211 316.039 45.3138 316.039 44.2461V21.5117C316.039 20.3268 316.267 19.4284 316.723 18.8164C317.178 18.1914 317.829 17.8789 318.676 17.8789C319.496 17.8789 320.147 18.1589 320.629 18.7188C321.111 19.2786 321.352 20.1055 321.352 21.1992V34.1289L327.348 27.8398C328.09 27.0586 328.656 26.5247 329.047 26.2383C329.438 25.9518 329.913 25.8086 330.473 25.8086C331.137 25.8086 331.69 26.0234 332.133 26.4531C332.576 26.8698 332.797 27.3971 332.797 28.0352C332.797 28.8164 332.074 29.8581 330.629 31.1602L327.797 33.7578L333.266 42.3516C333.669 42.9896 333.956 43.4779 334.125 43.8164C334.307 44.1419 334.398 44.4544 334.398 44.7539C334.398 45.6003 334.164 46.2708 333.695 46.7656C333.24 47.2474 332.634 47.4883 331.879 47.4883C331.228 47.4883 330.727 47.3125 330.375 46.9609C330.023 46.6094 329.548 45.9714 328.949 45.0469Z" fill="black"/>
</svg>
