<svg xmlns="http://www.w3.org/2000/svg" width="132" height="31" viewBox="0 0 698 122.605">
  <g id="Group_4" data-name="Group 4" transform="translate(-654 -487.106)">
    <g id="Group_2" data-name="Group 2" transform="translate(-1 18)">
      <path id="Path_2" data-name="Path 2" d="M113.684,3.756c-8.81,1.671-19.9,5.165-32.66,10.482-8.2,3.342-17.621,6.076-24,6.684-5.773.608-11.241,1.975-12,2.734-2.886,2.886,0,6.228,5.925,6.684,5.013.456,5.772,1.063,6.228,4.405.456,3.494-.152,4.1-5.316,4.861A83.311,83.311,0,0,1,39.1,40.669c-7.14,0-13.216,2.886-11.545,5.62.608.911,4.557,1.975,8.811,2.279,5.013.456,8.811,1.823,10.785,3.95l3.038,3.038-4.1,2.734c-3.342,2.126-8.507,2.886-24.913,3.646C3.4,62.543.514,63,.058,65.278c-.608,2.887,3.19,3.494,27.5,5.013,15.039.911,23.85,3.646,28.254,8.963,5.317,6.38-5.62,14.583-19.9,14.583-8.811,0-10.937,1.064-9.57,4.861.76,1.671,4.557,2.127,17.165,2.127,20.051-.152,28.1,1.215,27.343,4.861-.3,1.823-3.038,3.038-8.811,4.253-5.773,1.063-8.507,2.279-8.81,4.1-.456,2.279,1.215,2.583,14.127,2.583,13.671,0,25.368,1.823,42.382,6.988,10.026,2.886,16.1,2.734,25.52-1.063,9.418-3.646,16.406-9.722,16.406-14.127,0-5.469-5.316-12.153-14.127-18.229l-8.507-5.924-7.139,5.924c-13.064,11.089-16.1,11.849-23.242,5.773-5.165-4.253-6.076-9.722-2.43-12.76a6.32,6.32,0,0,0,2.279-3.95,4.1,4.1,0,0,1,2.127-3.19,12.5,12.5,0,0,0,3.8-4.709c2.127-3.95,2.279-3.8-8.507-15.191C87.4,47.2,86.8,40.061,94.089,33.833c2.734-2.127,5.773-3.646,6.988-3.19a9.219,9.219,0,0,0,3.342.911c1.215,0,5.317,3.494,15.039,12.76l5.013,4.709,6.38-6.987c6.532-7.291,11.241-10.482,15.343-10.482,3.8,0,11.545,7.6,11.545,11.393,0,3.646-3.8,11.849-7.291,15.646-5.621,6.228-5.469,7.9,1.975,14.887,7.14,6.532,14.431,9.418,20.052,7.6,6.38-2.127,17.165-23.09,17.165-33.723,0-11.7-12.608-27.951-27.5-35.7C148.927,4.971,127.052,1.325,113.684,3.756Z" transform="translate(655 466.106)" fill="#fff"/>
      <path id="Path_3" data-name="Path 3" d="M6.907,9.107C3.868,12.752,6,16.4,10.856,15.791c3.342-.3,4.253-1.215,4.253-4.253C15.109,6.98,9.793,5.461,6.907,9.107Z" transform="translate(673.824 480.046)" fill="#fff"/>
      <path id="Path_4" data-name="Path 4" d="M6.235,21.747a2.771,2.771,0,0,0,.456,3.342c2.127,2.127,9.874.152,8.963-2.279C14.894,20.38,7.6,19.62,6.235,21.747Z" transform="translate(675.103 526.042)" fill="#fff"/>
      <path id="Path_5" data-name="Path 5" d="M2.406,25.794c-1.063,2.734.456,5.317,3.19,5.317,2.279,0,4.253-4.1,2.886-6.228C7.267,22.756,3.317,23.211,2.406,25.794Z" transform="translate(662.07 536.427)" fill="#fff"/>
      <path id="Path_11" data-name="Path 11" d="M0,0H70.158V35H0Z" transform="translate(718.325 533.958) rotate(-50)" fill="#fff"/>
      <text id="Courierlink" transform="translate(863 564)" fill="#fff" font-size="93" font-family="ArialRoundedMTBold, Arial Rounded MT"><tspan x="0" y="0">courierlink</tspan></text>
    </g>
  </g>
</svg>
